/* XPM */
static char *result[] = {
/* columns rows colors chars-per-pixel */
"50 50 55 1 ",
"  c #9F5602",
". c #9E5803",
"X c #A05501",
"o c #A15803",
"O c #A15208",
"+ c #A45B0B",
"@ c #A56A1F",
"# c #A66720",
"$ c #E78F00",
"% c #E98F00",
"& c #E69101",
"* c #E89000",
"= c #E3930D",
"- c #E19210",
"; c #E3931B",
": c #F7A701",
"> c #F9A701",
", c #F6A901",
"< c #F9A801",
"1 c #F6A60C",
"2 c #F4AB0B",
"3 c #FAB001",
"4 c #F4A411",
"5 c #F6AB12",
"6 c #F6A619",
"7 c #F3B218",
"8 c #E7A42C",
"9 c #F0A42C",
"0 c #F5B130",
"q c #FDC602",
"w c #FCC802",
"e c #FEC509",
"r c #F5C80C",
"t c #F6C713",
"y c #FEC816",
"u c #F5C71D",
"i c #FBCB1B",
"p c #FBCE2C",
"a c #B98043",
"s c #FFEE54",
"d c #FEED5A",
"f c #FEF15D",
"g c #FFFFB5",
"h c #FFFDBE",
"j c #FFF2C7",
"k c #FEF4CB",
"l c #FBEDDB",
"z c #FFFED4",
"x c #FDF1DE",
"c c #FFFEDB",
"v c #FFFEE7",
"b c #FFFEE9",
"n c gray97",
"m c #FFFEF2",
"M c #FEFEFE",
/* pixels */
"MMMMMMMMMMMMMMMMMMMMMMMMMMMMMMMMMMMMMMMMMMMMMMMMMM",
"MMMMMMMMMMMMMMMMMMMMMMMMMMMMMMMMMMMMMMMMMMMMMMMMMM",
"MMMMMMMMMMMMMMMMMMMMMMMMMMMMMMMMMMMMMMMMMMMMMMMMMM",
"MMMMMMMMMMMMMMMMMMMMMMMMMMMMMMMMnMMMMMMMMMMMMMMMMM",
"MMMMMMMMnMnMMMMMMMMMMMMMnMMMMMMMnMMMMMMMMMMMMMMMMM",
"MMMnMMMMMMMMMMMMMMMnMMMMMMMMMMMnMMMMMMMMMMMMMMMMMM",
"MMMMMMMMMMMMnMMMMMMMMMnMMMMMMnMMMMMMnMMMMMMMMMMMMM",
"MMMMMMMMMMMMMMMnMMMMMMMMMMMMMMMMMMMMMMMMMMMMMMMMMM",
"MMMMMMMMMMMMMMMMMMMMMMMMMMMMMMMMMMMMMMMMMMMMMMMMMM",
"MMMMMMMMMMMMnMMMMMMMMMMMMMMMMMMMMMMMMMMMMMMMMMMMMM",
"MMMMMMMMMMMMnMMMMMkkkkkkjkjkkkkMMMMMMMMMMMMMMMMMMM",
"MMMMMMMMMMMMMMMMMMqqqqqqqqqqqqwMMMMMMMMMMMMMMMMMMM",
"MMMMMMMMMMMMMMMMMMqqqqqqqqqqqqqMMMMMMnMMMMMMMMMMMM",
"MMMMMMMMMMMMMMMzqqfdd<:5<<<<<<:qqbMMMMMMMMMMMMMMMM",
"MMMMMMMMMMMMMMMzqwffd<4><<<<:::qqbMMMnMMMMMMMMMMMM",
"MMMMMMMMMMMMMccgrrssd0>4161,,,:rrvMMMMMMMMMMMMMMMM",
"MMMMMMnMMMMMneqrffquy*$XX $*qqqdf=&*MMMMMMMMMMMMMM",
"MMMMMnMMMMMMMqqrffwie$&XX &*qqwff&&*MMMMMMMMMMMMMM",
"MMMMnMMMMMMMMwqq<< XXXXX XXXXX.:<$$$MMMMMMMMMMMMMM",
"MMMMMMMMMMMMMwqq:<XXXXX XXXXXX <<$$$MMMMMMMMMMMMMM",
"MMMMMMnMMMMMMeee:,o .XX   . Xo#:<==-MMMMMMMMMMMMMM",
"MMMMMMMMMMMMMqqq1>XXX$$X  qq*;&<<$$$MMMMMMMMMMMMMM",
"MMMMMMMMMMMMMqqq<<XXX*&X  qq-&*1<$$$MMMMMMMMMMMMMM",
"MMMMMMMMMMMMMtqq<<Xo.XXX  @+oXo<<$$$MMMMMMMMMMMMMM",
"MMMMMMMMMMMMnqqq:< XX XO  @+XX <<$$%MMMMMMMMMMMMMM",
"MMMMMMMMMMMMMqqq<<  OX . OX XX 1<$$$MMMMMMMMMMMMMM",
"MMMMMMMMMnnMMqqq:<**&qqo  qqX  :<$*$MMMMMMMMMMMMMM",
"MMMMMMMMMMMMMqqq::$$&qqoXXqqX  <<$*$MMMMMMMMMMMMMM",
"MMMMMMMMMMMMMqqe<<XXXXXXX XXXX :<$$$MMMMMMMMMMMMMM",
"MMMMMMMMMMnMMqqq::XX. XXXX XXX :<$$8MMMMMMMMMMMMMM",
"MMMMMMMMMMMMMqqq:>XXaX   .o. X.:<9$$nMMMMMMMMMMMMM",
"MMMMMMMMMMMMMqqq<<qpe$$   $$qww<<=$$MMMMMMMMMMMMMM",
"MMMMMMMMMMMMMqqq<1iee&&o  $$qqw:<&*$MMMMMMMMMMMMMM",
"MMMMMMMMMMMMMvvh77,:,:>111>>::,&&cvbMMMMMMMMMMMMMM",
"MMMMMMMMMMMMMMMz23::::<<<<>><<1**mMMMMMMMMMMnMMMMM",
"MMMMMMMMMMMMMMMc3<<::2<<<<<<<<<$$mMMMMMMMMMnMMMMMM",
"MMMMMMMMMMMMMnMMMM$%$$$$%%$$*$$MMMMMMMMMMnMMMMMMMM",
"MMMMMMMMMMMMMMMMMM$%$$*$$$*=$$*MMMMMMMMMMnMMMMMMMM",
"MMMMMMMMMMMMMMMMMMlvxxxxxlllxxxMMMMMMMMMMMMMMMMMMM",
"MMMMMMMMMMMMMMMMMMMMMMMMMMMMMMMMMMMMMMMMMMMMMMMMMM",
"MMMMMMMMMMMMMMMMMMMMMMMnnMMMMMMMMMMMMMMMMMMMMMMMMM",
"MMMMMMMMMMMMMMMMMMMMMMMMMMMMMMMMMMMMMMMMMMMMMMMMMM",
"MMMMMMMMnMMMMMMMMMMMMMMMMMMMMMMMMMMMMMMMMMMMMMMMMM",
"MMMMMMMMMMMMMMMMMMMMMMMMMMMMMMMMMMMMMMMMMMMMMMMMMM",
"MMMMMMMMMMMMMMMMMMMMMMMMMMMMMMMMMMMMMMMMMMMMMMMMMM",
"MMMMMMMMMMMMMMMMMMMMMMMMMMMMMMMMMMMMMMMMMMMMMMMMMM",
"MMMMMMMMMMMMMMMMMMMMMMMMMMMMMMMMMMMMMMMMMMMMMMMMMM",
"MMMMMMMMMMMMMMMMMMMMMMMMMMMMMMMMMMMMMMMMMMMMMMMMMM",
"MMMMMMMMMMMMMMMMMMMMMMMMMMMMMMMMMMMMMMMMMMMMMMMMMM",
"MMMMMMMMMMMMMMMMMMMMMMMMMMMMMMMMMMMMMMMMMMMMMMMMMM"
};
