/* XPM */
static char *_df3061555e54e5a8a0f340adfce68e54QZH3pSYW0b3QnvO[] = {
/* columns rows colors chars-per-pixel */
"50 50 197 2 ",
"   c #020101",
".  c #0B0202",
"X  c #040903",
"o  c #0B0903",
"O  c #03030A",
"+  c #0A020A",
"@  c #02090B",
"#  c #0F090D",
"$  c #120201",
"%  c #1A0403",
"&  c #160C01",
"*  c #1B0E03",
"=  c #11050B",
"-  c #130E09",
";  c #1D0E0A",
":  c #171304",
">  c #1C1202",
",  c #1C1208",
"<  c #020313",
"1  c #080312",
"2  c #020914",
"3  c #0E0810",
"4  c #01041A",
"5  c #020918",
"6  c #130810",
"7  c #210101",
"8  c #230E03",
"9  c #230E0A",
"0  c #310101",
"q  c #231302",
"w  c #2C1604",
"e  c #2B1904",
"r  c #221109",
"t  c #2B180C",
"y  c #331503",
"u  c #381703",
"i  c #331A04",
"p  c #3B1C04",
"a  c #361709",
"s  c #341A0A",
"d  c #3B1D09",
"f  c #350112",
"g  c #2A1712",
"h  c #352104",
"j  c #3F2302",
"k  c #400000",
"l  c #40010B",
"z  c #500000",
"x  c #441C03",
"c  c #411D09",
"v  c #501104",
"b  c #5C1701",
"n  c #600100",
"m  c #700000",
"M  c #790000",
"N  c #691300",
"B  c #442405",
"V  c #4A2304",
"C  c #4E2905",
"Z  c #462108",
"A  c #49220B",
"S  c #4E2B0A",
"D  c #522504",
"F  c #532B05",
"G  c #5E2D05",
"H  c #58250E",
"J  c #542A0A",
"K  c #5D2C0A",
"L  c #4F310D",
"P  c #553301",
"I  c #5C3306",
"U  c #5F3B05",
"Y  c #5D3308",
"T  c #652F05",
"R  c #642C0B",
"E  c #643305",
"W  c #6B3604",
"Q  c #613B05",
"!  c #6D3B03",
"~  c #633509",
"^  c #6B350A",
"/  c #67390B",
"(  c #6D390B",
")  c #733505",
"_  c #723B04",
"`  c #7B3B03",
"'  c #73360B",
"]  c #7E330A",
"[  c #723B0B",
"{  c #7C3C0A",
"}  c #7D3C13",
"|  c #764406",
" . c #7C4204",
".. c #774D02",
"X. c #76410A",
"o. c #7D430C",
"O. c #7F480A",
"+. c #7C4B14",
"@. c #800000",
"#. c #920001",
"$. c #9F0000",
"%. c #A00001",
"&. c #AF0000",
"*. c #B00000",
"=. c #BF0000",
"-. c #AD1102",
";. c #833E03",
":. c #823C0B",
">. c #923D02",
",. c #A22301",
"<. c #AE3F03",
"1. c #A0390A",
"2. c #AD3F08",
"3. c #BC3204",
"4. c #B63A04",
"5. c #C00101",
"6. c #CD0301",
"7. c #D00000",
"8. c #DE0100",
"9. c #D40B02",
"0. c #D71C01",
"q. c #D91D00",
"w. c #E20100",
"e. c #EF0100",
"r. c #ED0E01",
"t. c #F10000",
"y. c #FF0000",
"u. c #F20A01",
"i. c #E61302",
"p. c #EC1001",
"a. c #C12D03",
"s. c #C92C01",
"d. c #D12303",
"f. c #C03203",
"g. c #854201",
"h. c #8D4503",
"j. c #864A01",
"k. c #8E4C03",
"l. c #83430D",
"z. c #8B450B",
"x. c #844A09",
"c. c #8C4C0B",
"v. c #934602",
"b. c #9C4603",
"n. c #954D03",
"m. c #9B4D03",
"M. c #96450F",
"N. c #9E450A",
"B. c #944D0A",
"V. c #9B4B0D",
"C. c #984D0C",
"Z. c #9C4D0D",
"A. c #9B4D0A",
"S. c #8E5203",
"D. c #8F500E",
"F. c #8E530C",
"G. c #925201",
"H. c #975101",
"J. c #945104",
"K. c #985000",
"L. c #9A5002",
"P. c #9E5100",
"I. c #9B5007",
"U. c #9A5103",
"Y. c #975800",
"T. c #955903",
"R. c #9C5907",
"E. c #94530A",
"W. c #92540A",
"Q. c #975508",
"!. c #93520A",
"~. c #995008",
"^. c #9A500C",
"/. c #9A520B",
"(. c #9B5D09",
"). c #8F4F14",
"_. c #914D10",
"`. c #9F4B12",
"'. c #865417",
"]. c #925612",
"[. c #955B16",
"{. c #995B13",
"}. c #A44404",
"|. c #AF4202",
" X c #A04C00",
".X c #A14D04",
"XX c #A24C04",
"oX c #AA4A02",
"OX c #A24708",
"+X c #A14909",
"@X c #A14B0A",
"#X c #A25107",
"$X c #A3510A",
"%X c #A95709",
"&X c #A04B14",
"*X c #A14E13",
"=X c #A05310",
/* pixels */
"        O                   @ D | l.[ % ! l.| { o. .{ o.% _ +.] ` ;.o.{  .w J o. .l.g.{ [ o.C a o.:.",
"& & * * , O q * * & & : * 8 = - * : * , & * > - # : * 9 : & ; : q < 8 * : * * , * r < * , * : > * 9 ",
"m.n.m.m.%X  F.m.m.n.m.#XXXm.i Q K.G.W.Y.W.S.m.! e k.m..XH.B.z.K.G.  $XXXF.n.m.Q.m.I.. G.K.n.!.Q.m.b.",
"n.m.n.C.$XX P.n.m.n.n.K.m.m.i Y C.U.A.m.A.U.C.U i H.J.m.m.XXF.m.m.  m.C.K.B.m.m.n.m.O m.M.G.&Xm.m.`.",
"m.m.I.D.m.. l.K.A.m.OXh.c.!.c ~ A.!..Xk.@XQ.M.( p B.).h.m.n.B.I.x.. XXF.m.A.m.B.).k.. B.B.C.b.@Xh.D.",
"X <     X 5     + $ 4 O @   + @ . . $ 4 %   . X X   O O 4 .       5       O O   O X 5       + 1 O O ",
"{ w G.J.F.#XQ.n.}.C.  m.n.B.^.P.m.I.W.. J./.m.XXE.B.n.m.  !.m.n.Q.#XF.B.H.y ! m.B.!.$X!.m.m.~ i n.n.",
"! q C.n.n.$XF.F.XXC.  B.m.n.n.Z.n.I.H.+ H.C.H.I.n.n.m.!.O n.A.!.!.#Xn.m.!.e W A.m.n.m./.n.m.E i S.m.",
"^ w m.m.$X.Xn.N.[.z.% B.@Xm.^.m.W.=Xc.7 x.Z.H.n.^.J.A.C.% c.{.N.v.m.^.m.m.i ^ ^.m.^.m.m.B.^.G x !.OX",
". X     o 4 o     X O + +   < @       @       O @ X   + X   O   . 4 o     O X .   o 4 . O O X X + O ",
"n.m.F.@X@X. G.n.b.c.Q.m.m.n.u W K.G.J.Y.W.G.m.! i J.m.m.K.B.v.n.S.. @X@XW.m.m.!.m.I.. n.m.n.B.!.m.OX",
"m.!.m.m.m.X R..XS.@Xm.m.^.m.u I A.U.A.m.Z.U.XXQ w K.C.m.m.m.B.U.K.X .XC.K.!.m.m.J.m.@ U.C.G.`.m.m.Z.",
"m..XP.E..X. c.U.A.m.}.n.B.I.c ~ A.Q.XXn.m.Q.A.^ p C.B.n.m.K./.K.D.. oXW.m.A.m.n.).m.. C.m./.m.XXn.B.",
"X O     . 5   X . $ 4   X   X O .   o 4 %   O O X     O 4 . O     4       O X +     5     O . 1 X   ",
"[ y n.J.!.XX!.n.OXB.. m.n.B.m.m.m./.J.$ J.!.m.m.C.m.m.m.  B.m.m.J.m.!.!.J.u W n.n.!..XB.m.m.T i m.n.",
"! q n.n.m.m.J.D.XXA.O n.m.m.m.A.n.C.G.+ H.C.n.C.n.m.m.J.O !.m.D.J..Xm.m.n.w ! .X.Xn.m.I./.m.~ e B.m.",
") w m.U.A.m.n. XW.c.$ n.A.m.i.i.m.J.n.. B.m.m.C.m.K.m.H.+ S.n.B.n.m.C.m.K.y T /.m./.U.n.m.C.Y p C.OX",
". @     . < .     . @ + 0 w.y.y.#.  X O + @ +           .       . l w.0   O # X   . < . X   X +   + ",
"m.XXJ.@X@X. S.n.A.v.I.3.y.y.y.y.y.f.m.A.B..   O     O   S.n.#Xm.OXt.y.y.3.#Xm.K.A.n.$ J.m.m.B.m.m.&X",
".XJ.U.Z.m.  R.#XH.V.m.4.y.y.y.y.y.t.<..   @ .         O     '.m.i.y.y.y.y.d.m.m.n.n.O I.A.K.V.m.m.Z.",
"m.m.P.E. X. ].K.A.m. Xm.a.y.y.y.y.y.w.o                       &.y.y.y.y.y.i.m.I.c.m.  C.K.P.m.m.m.n.",
"  O X   . 4 .   + . 1     %.y.y.y.y.y.5.                    M y.y.y.y.y.7.=       . 4 . X + . 1     ",
") w B.m./.b.n.!.V.B.$ b.m.@Xu.t.y.y.y.y.#.                n y.y.y.y.t.y.}.u W C.m.I.b.n.C.C.T u m.C.",
"! q J.m.m.m.n.!.OXm.O n.m.P.}.y.y.y.y.y.y.z             0 e.y.y.y.y.y.3.n.w W P.m.n.m.m.n.m.~ e m.U.",
"[ q P.P.I.m.n.oXS.C.. n.b.K.B.N y.y.y.y.y.e.0         . w.y.y.y.y.y.s.@Xm.e ^ J.m.m.XXG.m.m.~ i K.XX",
"= @       O . O   o < O + . + O m y.y.y.y.y.8.$       5.y.y.y.y.y.$.+     + =       O       X O O + ",
" XoXS.$XA.$ k.n..Xh.m.b.`.!.p     $.y.y.y.y.y.=.    %.y.y.y.y.y.7.% c.n.G.oXXXm.n.z.% B.m.@Xv.m.v.*X",
"XXm.m.A.m.  (.XXm.m.n.XX^.H.i     $ 7.y.y.y.y.y.#.z y.y.y.y.y.t.%   n.!.m.K.U.m.C.H.O R.#XP.b.n.m.Z.",
"m.XXK.J.oX  [.m.XXm.b.m.n.n.s       % t.y.y.y.y.y.y.y.y.y.y.y.k O . G.@XU.m.m.H.h.P.  /.I.K.m.m.m.n.",
"  X   . $ 4 $ X + . = o   . +         k y.y.y.y.y.y.y.y.y.y.z     < + . .     +   $ 5 $ X + . # o   ",
"W y c.n.n.>.h.!._.z.$ h.v.m.b.w         m y.y.y.y.y.y.y.y.$..     X l.j.c.y T c.n.k.>.c.B.z.R u v.m.",
"! 8 G.m.n.b.G.F.}.C.O K.m.m.n.u           %.y.y.y.y.y.y.7.          H.!.G.e W P.m.n.b.m.m.n.E e m.m.",
") q m.#Xm.m.J.oXk.!.+ n.b.H.C.u           M y.y.y.y.y.y.$.      O . Q.N.m.w ^ m.m.m.m.G.m.n.~ e K.m.",
"r 3 q > * , 8 8 q q O ; 9 q , .         0 y.y.y.y.y.y.y.y.z       O r 8 > # r q > * , 8 q q , = r 9 ",
"` ;.! { { $ ! _ :.W ` ` } X.y         0 t.y.y.y.y.y.y.y.y.e.0       [ ! _ g.` _ _ _ % [ ` :.) ` _ } ",
"XXK.H.@X#X  (.XXH.A.n.m.A.H.i       . 6.y.y.y.y.y.y.y.y.y.y.8.$ X   K.Q.K.K.XXm.n.I.O J.P.K.m.n.m.@X",
"m.m.U.I.oX  (.m.m.m.m.m.n.m.i       &.y.y.y.y.y.5.%.y.y.y.y.y.=.O O Q.XXm.m.m.K.k.m.O A.C.H.A.m.m.n.",
"i p h i x < i h d x c u i p ; O   @.y.y.y.y.y.6.. $ 7.y.y.y.y.y.#.+ d p h p i d p c O p h p p c i i ",
"Z 8 Y E I K G Y R K + G Y E T 8 n y.y.y.y.y.e.0     % t.y.y.y.y.y.n K P Y 9 B Y G I K G Y G c 9 G ~ ",
"_ q G.n.J.XXG.n. X/.  m.m.n.n.b e.y.y.y.y.y.z         k y.y.y.y.y.e.|.J.n.e W m.m.J..XJ.m.m.~ i m.m.",
"_ q m.K.m.m.!.P.n.C.O n.m.m.m.w.y.y.y.y.y.@.            m y.y.y.y.y.u.}.m.e / m.m.m..XJ.m.m.~ i J.m.",
"Z ; F C J J C D L D = J H F 9.y.y.y.y.y.&.                %.y.y.y.y.y.9.D 9 d F C F F F C J i 9 F H ",
"Z V j V V + B B V p V c A -.y.y.y.y.y.7.$                 . 7.y.y.y.y.y.-.V V V B Z 1 B B Z B B Z A ",
"m.n.Q.@X$X  T.K.n.B.Y.m.a.y.y.y.y.y.t.7                     7 t.y.y.y.y.y.3.m.!.n.P.O H.m.H.C.J.m.m.",
"m.m.K.n.XX  R.m.n.OX.X|.y.y.y.y.y.y.0                         0 y.y.y.y.y.u.<.m.k.m.< P./.G.V.m.m.C.",
"W ^ _ / ) + ~ ! ^ ) :.t.y.y.y.y.y.m                             m y.y.y.y.y.e.) / W + W W ( ) ) E Q ",
"q = e w e g q w y y f w.y.y.y.y.$.                                %.y.y.y.y.y.6.t e t q w w r = w t ",
"X.q n.J.F.#XQ.v. XZ.  m.p.y.y.8.                                < $ p.y.y.y.y.0.n.J.#XC.m.m.~ d m.n.",
"! q C.B.n.#X!.!.XXm.+ c.K.0.y.x                                     2.t.y.y.,.m.m.H.A.P.!.m.E i !.m.",
"I q g.g.g.g.g.| ` ..%  .;.z.z.i O O @           X X < 4   @     . $ ).1.y.v J O.g.g.g.g.l.l.F i g.;."
};
