/* XPM */
static char *result[] = {
/* columns rows colors chars-per-pixel */
"50 50 128 2 ",
"   c #010101",
".  c #0B0202",
"X  c #040903",
"o  c #0B0903",
"O  c #03030A",
"+  c #0A030A",
"@  c #02090B",
"#  c #0F090D",
"$  c #120301",
"%  c #1A0403",
"&  c #160C01",
"*  c #1B0E03",
"=  c #11050B",
"-  c #120C0A",
";  c #1D0E0A",
":  c #171304",
">  c #1C1202",
",  c #1C1208",
"<  c #020313",
"1  c #080312",
"2  c #01041A",
"3  c #020918",
"4  c #220303",
"5  c #230F02",
"6  c #230E0A",
"7  c #231303",
"8  c #2B1604",
"9  c #2B1903",
"0  c #221109",
"q  c #2E140C",
"w  c #2A180B",
"e  c #331504",
"r  c #381703",
"t  c #341A04",
"y  c #3B1C03",
"u  c #361709",
"i  c #341A0A",
"p  c #3A1C09",
"a  c #2A1712",
"s  c #352104",
"d  c #3F2302",
"f  c #431C04",
"g  c #411D09",
"h  c #432405",
"j  c #4A2304",
"k  c #402801",
"l  c #4E2905",
"z  c #43220A",
"x  c #49220B",
"c  c #4E2B0A",
"v  c #522504",
"b  c #532B05",
"n  c #5E2D05",
"m  c #58250E",
"M  c #542A0A",
"N  c #5D2C0A",
"B  c #4F310D",
"V  c #553301",
"C  c #5C3306",
"Z  c #5F3B05",
"A  c #5D3308",
"S  c #652F05",
"D  c #642C0B",
"F  c #643305",
"G  c #6B3604",
"H  c #613B05",
"J  c #6D3A04",
"K  c #633509",
"L  c #6B350A",
"P  c #65390B",
"I  c #6D380A",
"U  c #733605",
"Y  c #723B04",
"T  c #7B3B03",
"R  c #73350B",
"E  c #7D350A",
"W  c #723B0B",
"Q  c #7C3C0A",
"!  c #7D3C13",
"~  c #764406",
"^  c #7C4204",
"/  c #774D02",
"(  c #76410A",
")  c #7D430C",
"_  c #7F480A",
"`  c #7C4B14",
"'  c #833E03",
"]  c #823C0B",
"[  c #923D02",
"{  c #844201",
"}  c #8D4503",
"|  c #864A01",
" . c #8D4C03",
".. c #83430D",
"X. c #8A450B",
"o. c #844A0A",
"O. c #8C4C0B",
"+. c #934602",
"@. c #9D4604",
"#. c #954D03",
"$. c #9B4D03",
"%. c #96450F",
"&. c #9E450A",
"*. c #944D0A",
"=. c #9B4D0B",
"-. c #8D5203",
";. c #8E520C",
":. c #945104",
">. c #9A5103",
",. c #955902",
"<. c #9C5907",
"1. c #93520A",
"2. c #9A520B",
"3. c #9B5D09",
"4. c #8F4F14",
"5. c #9F4B12",
"6. c #865417",
"7. c #925612",
"8. c #955B16",
"9. c #A24603",
"0. c #A14C04",
"q. c #AA4A02",
"w. c #A24708",
"e. c #A14A0A",
"r. c #A25106",
"t. c #A3510A",
"y. c #A95709",
"u. c #A14D13",
/* pixels */
"        O .               . O v ~ ..W % J ..~ Q ) ^ Q ) % Y ` E T ' ) ^ ^ 8 M ..^ ) { Q W _ l u ) ] ",
"& & & * , O > & & & & : * * - - : * * , & * : - # : * ; : & - : > < 5 * : * * , * 7 1 * , - : * * 6 ",
"$.$.#.$.y.  1.$.$.$.$.>.0.$.t H $.:.1.,.-.-.$.J t :.$.0.,.#.+.>.-.. e.w.1.#.#.1.$.2.  :.$.#.2.:.$.@.",
"#.$.#.=.=.X <.>.#.#.$.:.$.$.t A *.>.=.>.=.>.=.Z 9 :.$.$.$.e.;.$.>.O 0.#.$.*.$.$.#.>.< 0.*.:.5.>.$.5.",
"$.=.>.;.0.. o.$.=.$.w.} O.=.f P =.:.&. .e.1.+.I p *.*.} =.#.*.$.o.$ >.7.2.$.$.*.4.+.. *.#.*.$.&.} ;.",
"X <     X 3     . . 2 . O   + @ o . $ < $ o o + .   O @ 2 o       3       < .   X   3     . + 1 O O ",
"W 8 #.:.;.r.1.#.0.=.  $.#.O.7.$.$.2.:.. :.:.r.0.1.O.$.#.  1.@.#.1.r.;.#.#.t I $.#.;.r.2.$.$.F t #.+.",
"Y 7 2.#.#.r.1.;.&.=.. 1.#.$.$.2.#.=.,.+ :.=.#.2.#.>.$.;.O #.=.1.1.r.#.*.#.9 G =.=.#.>.2.*.$.F i :.>.",
"U 8 $.#.t.=.#.@.8.X.% *.=.*.2.$.,.2.o.4 o.2.>.#.2.:.=.*.% o.8.&.+.$.2.$.>.u K 2.>.5.$.$.*.2.S y 2.&.",
". X X   o < . X O   X + . . < O X   . O .     O < X . + X   O   o < .   X X . X   o < . O O X X X O ",
"#.$.;.w.t.. -.>.#.*.:.@.@.>.y G $. .>.,.;.-.>.J t :.$.$.>. .*.#.-.. e.e.;.$.$.:.$.=.. :.#.#.*.2.$.&.",
"$.*.$.=.$.  <.$.-.e.$.2.=.#.t C =.>.=.$.2.>.=.H 9 :.$.$.>.w.#.$.:.. $.*.$.*.$.$. .>.O >.=.:.=.>.$.5.",
"$.0.2.1.0.. ;.:.&.0.w.#.#.2.p K =.,.e.#.w.:.=.I u 2.*.#.$.$.=.$.;.  0.1.>.&.$.$.7.#.. *.#.2.$.w.+.1.",
"X O     . 3 .   . . 2 .     . @ +   o < $   . O .   O . 3 o     . 3 .   . O X .   . 3   X . + 1   X ",
"Y 8 #.>.1.0.>.#.w.*.. $.#.*.2.$.$.2.:.$ :.2.$.$.:.2.@.$.  ;.@.2.:.@.1.>.-.r G #.#.1.w.2.$.@.K r $.#.",
"J 7 >.#.#.0.;.;.w.>.O #.$.$.$.=.#.=.:.O :.*.#.$.#.#.$.:.O 1.$.;.2.$.#.#.*.9 J =.0.#.$.#.*.$.F t 1.$.",
"W 7 $.>.2.$.+.0.1.O.$ =.@.:.*.>.$.>.#.+ *.$.$.=.>.$.>.$.O -. .#.+.$.2.>.>.8 L 1.>.2.$.#.*.2.A y =.w.",
"+ O .   . O o     . O O + . 1         O + @ O           . . . . . O   .   @ + .   o < .   . X O O + ",
"$.0.1.e.=.$ -.$.$.O.>.$.=.2.y F *.>.>.$.*..   <     O   -.-.$.#.-.. =.e.:.$.$.#.$.*.$ :.$.>.#.>.$.=.",
"$.>.>.=.$.  <.r.:.e.$.$.=.:.t C $.$.$.+   O .   X     O     6.>.2.  @.=.$.>.0.$.#.#.O >.&.:.=.$.$.=.",
"$.&.>.1.0.  7.>.@.$.0.$.#.#.p P 9.>.+                           2.. #.$.>.@.$.$.O.$.  =.$.>.$.$.$.*.",
"  X   . . 3 .   + . 1     . O O @ o < .                         . <   +   O X     o 3 . O   + + .   ",
"I e -.>.2.@.#.2.w.*.$ @.$.$.$.$.f   O +                         $ >.| :.1.r G *.=.$.@.#.=.=.D r $.>.",
"J 7 :.$.$.@. .1.w.*.X #.>.$.$.$.z o .                           . 0.w.=.:.8 J 2.$.#.$.$.>.#.K 9 $.$.",
"W 7 >.>.=.$.#.q.-.2.+ #.@.:.=.t                                 O + ,.w.$.8 L #.$.$.$.#.$.:.K t :.@.",
"= O .     O .     o O O + o O                                     O +   . O o .     O .     + O O + ",
"0.0.#.t.&.$ -.#.0.} $.@.5.2.r                                     X O.#.-.0.q.$.2.} % #.0.0.} $.+.u.",
"0.>.>.=.$.  3.0.>.@.#.$.=.:.t                                       #.1.$.>.$.$.1.#.@ :.0.<.@.$.$.e.",
"$.$.>.:.0.  8.0.$.$.@.$.+.#.i O                                 O + ,.9.>.$.$.>. .$.  2.>.$.$.$.>. .",
"  X . . $ 2 & X + . = o   . .                                     < + . . .   +   $ 3 $ X + o + o . ",
"F e o.#.#.[ } O.%.X.$ } #.$.+.e                                   X ..| o.t S o.*. .[ +.*.X.D e +.#.",
"Y 7 :.$.#.@.:.1.w.=.O $.$.$.$.t                                     :.:.:.9 G $.$.:.@.$.$.#.K t $.$.",
"R 7 $.$.$.$.:.q. .2.. #.@.>.*.t                                 O + ,.9.$.8 G #.$.$.$.:.$.#.P 8 >.@.",
"0 # 7 > , , 5 * 7 7 O 0 0 7 0 .                                   O 6 5 7 # 6 7 > * 0 7 > 7 , = , 6 ",
"T ' Y Q Q $ J Y ' G T U ! ( e                                     X W J Y ' ' Y T G $ W T Q U T Y ! ",
"$.$.,.e.0.  3.0.#.=.#.0.&.:.t                                       :.2.:.$.$.#.#.2.O >.$.>.$.#.>.&.",
"$.@.>.:.q.  3.$.$.$.$.$.#.$.u                                   O . :.e.>.@.$.>. .$.  =.>.:.@.$.>.#.",
"y y s y f 1 s s p f g y s p ;                                     O p y d s y i y p 1 y s p p g y t ",
"h 6 C C C N n C D N + n n F S 7                                   @ N V A 6 h A A C N n C D f 0 n F ",
"Y 7 :.#.:.$.#.#.0.=.  $.#.#.>.t                                 O   $.>.#.8 G >.$.:.$.>.$.$.P t $.#.",
"Y 7 $.>.$.w.:.=.#.=.. #.#.#.#.y                                 O . >.w.$.9 G #.$.#.r.>.#.#.K t >.$.",
"z ; b l b b l v B l = M m b M *                                   o c b b 0 p M b b b v l M y 0 M m ",
"j j k j j + k h j d h z x h ; .                                   O z k d j j h h j 1 h h x d j h x ",
"$.#.1.e.t.  ,.>.+.*.>.$.@.:.u                                   O   r.>.:.#.$.>.+.>.+ :.$.#.*.:.$.&.",
"$.*.$.#.0.X 2.$.#.e.$.$.2.#.t                                   O   =.w.>.#.$.$. .$.O $.2.:.e.$.>.#.",
"G G Y P Y + K J I U R F P I u                                     o P J I G G I P G + L G P U U F P ",
"0 # 9 8 9 a 7 9 u e 1 8 w 8 e o                                   X q 9 9 # 0 8 w 9 w 8 8 8 6 - 8 w ",
"Y 8  .>.1.r.:.+.9.=.  :.#.#.2.y                                 <   r.$.#.t I #.#.:.r.*.$.$.K i $.#.",
"Y 7 =.#.#.r.2.;.w.$.. O.$.#.$.y                                     &.$.=.9 J $.0.:.$.>.*.$.F t ;.$.",
"V 7 { { { { { ~ T / = | ' ..o.t O O +       X   X   < 3   @     $ . 4.o.{ 0 b ) { { { { ....V r { ' "
};
