/* XPM */
static char *_ca021cc5047414fcd473c6708727308CyTfagv2GW3s9UW6[] = {
/* columns rows colors chars-per-pixel */
"50 50 195 2 ",
"   c None",
".  c black",
"X  c #010100",
"o  c #010101",
"O  c #030301",
"+  c #020202",
"@  c #030404",
"#  c #050404",
"$  c #050504",
"%  c gray2",
"&  c #060505",
"*  c #070604",
"=  c #070707",
"-  c #090707",
";  c #070709",
":  c #0B0808",
">  c #0D0A09",
",  c #0F0B0A",
"<  c gray5",
"1  c #150F0F",
"2  c #13110F",
"3  c #16100F",
"4  c #14120F",
"5  c #0D0E11",
"6  c #191212",
"7  c #1B1514",
"8  c #1B1615",
"9  c #1B1715",
"0  c #1F1A10",
"q  c #1C1813",
"w  c #1C1817",
"e  c #1C1A16",
"r  c #1F1B19",
"t  c #1F1C1A",
"y  c #221C1B",
"u  c #261D1C",
"i  c #241F1C",
"p  c #281E1D",
"a  c #291E1D",
"s  c #2A1F1D",
"d  c #3A341C",
"f  c #1B1D25",
"g  c #202020",
"h  c #282520",
"j  c #24252A",
"k  c #27272C",
"l  c #2E2A29",
"z  c #2C2C2C",
"x  c #322523",
"c  c #332624",
"v  c #362726",
"b  c #352826",
"n  c #372927",
"m  c #312B28",
"M  c #372928",
"N  c #352A28",
"B  c #382A28",
"V  c #392B29",
"C  c #3A2B2A",
"Z  c #3D2E2C",
"A  c #39342D",
"S  c #3A352E",
"D  c #302F33",
"F  c #3F3A32",
"G  c #3C3C3C",
"H  c #3E3E3E",
"J  c #3F3E3F",
"K  c #453A24",
"L  c #4A3E25",
"P  c #493837",
"I  c #4D3D3B",
"U  c #5A3C36",
"Y  c #5A3D37",
"T  c #4E4126",
"R  c #5C522C",
"E  c #42403C",
"W  c #49443C",
"Q  c #584C35",
"!  c #675D37",
"~  c #6A5F3B",
"^  c #75623C",
"/  c #79653F",
"(  c #21576C",
")  c #24586D",
"_  c #315E70",
"`  c #335F70",
"'  c #356071",
"]  c #424041",
"[  c #434342",
"{  c #434343",
"}  c #444444",
"|  c #5A5247",
" . c #5C5352",
".. c gray35",
"X. c #5A5959",
"o. c #5F5F5F",
"O. c #60514E",
"+. c #675955",
"@. c #6C614A",
"#. c #6B694F",
"$. c #6C6A4F",
"%. c #7C6841",
"&. c #7A6D46",
"*. c #6B6154",
"=. c #726D56",
"-. c #746E57",
";. c #626262",
":. c #686560",
">. c #6A6A6A",
",. c #716B60",
"<. c gray44",
"1. c #767677",
"2. c #81574F",
"3. c #815951",
"4. c #83764F",
"5. c #8C7549",
"6. c #8F794D",
"7. c #807560",
"8. c #847F61",
"9. c #897470",
"0. c #80805B",
"q. c #AD925C",
"w. c #AE935C",
"e. c #B5995F",
"r. c #8A8665",
"t. c #888860",
"y. c #928462",
"u. c #95847E",
"i. c #9A8E79",
"p. c #B49860",
"a. c #B59961",
"s. c #768C8C",
"d. c #778D8D",
"f. c #A69883",
"g. c #A99D8B",
"h. c #B2B1B1",
"j. c #B3B2B0",
"k. c #B6B6B6",
"l. c #B9B9B9",
"z. c #C8B79D",
"x. c #C6ACA0",
"c. c #C8ADA0",
"v. c #CAAFA2",
"b. c #CCB1A5",
"n. c #CFB3A6",
"m. c #D2B6A8",
"M. c #D2B7A8",
"N. c #D2B6A9",
"B. c #D4C2A7",
"V. c #D6C3A8",
"C. c #D5C4AA",
"Z. c #D8C5A9",
"A. c #C8C3B0",
"S. c #CBC4B1",
"D. c #DBCFB7",
"F. c #E2CEAD",
"G. c #E1CDB1",
"H. c #E1CEB2",
"J. c #E2CFB2",
"K. c #EAD6B6",
"L. c #EAD4BA",
"P. c #EBD4BA",
"I. c #ECD8BA",
"U. c #EFDCBE",
"Y. c #C0C0C0",
"T. c #C6C6C5",
"R. c #CDCDCD",
"E. c #D5D5D5",
"W. c #D7D7D7",
"Q. c #F4DFC0",
"!. c #F5E0C1",
"~. c #F6E0C1",
"^. c #F6E1C1",
"/. c #F6E1C2",
"(. c #F7E2C2",
"). c #F8E3C3",
"_. c #F8E3C4",
"`. c #F9E4C4",
"'. c #FAE4C5",
"]. c #FAE5C5",
"[. c #E2E2E2",
"{. c gray90",
"}. c #E7E7E7",
"|. c gray92",
" X c #ECECEC",
".X c gray93",
"XX c gray94",
"oX c gray95",
"OX c #F5F3F0",
"+X c gray96",
"@X c #F9F6F2",
"#X c #FDFDFD",
"$X c #FEFEFE",
"%X c #FFFEFE",
"&X c white",
/* pixels */
"  &X&X&X&X&X&X&X&X&X&X&X&X&X&X&X&X&X&X&X&X&X&X&X&X&X&X&X&X&X&X&X&X&X&X&X&X&X&X&X&X&X&X&X&X&X&X&X&X  ",
"  &X&X&X&X&X&X&X&X&X&X&X&X&X&X&X&X&X&X&X&X&X&X&X&X&X&X&X&X&X&X&X&X&X&X&X&X&X&X&X&X&X&X&X&X&X&X&X&X  ",
"  &X&X&X&X&X&X&X&X&X&X&X&X&X&X{.k.k.k.k.k.k.k.k.k.k.k.k.k.k.k.k.k.k.&X#X&X&X&X&X&X&X&X&X&X&X&X&X&X  ",
"  &X&X&X&X&X&X&X&X&X&X&X&X&X&Xl.. . . . . . . . . . . . . . . . . . &X#X&X&X&X&X&X&X&X&X&X&X&X&X&X  ",
"  &X&X&X&X&X&X&X&X&X&X&X&X&Xg Q q.q.q.q.q.q.q.q.q.q.q.q.q.q.q.q.q.q.g <.&X&X&X&X&X&X&X&X&X&X&X&X&X  ",
"  &X&X&X&X&X&X&X&X&X&X&X&X&X. T p.p.p.p.p.p.p.p.p.p.p.p.p.p.p.p.p.p.. *.&X&X&X&X&X&X&X&X&X&X&X&X&X  ",
"  &X&X&X&X&X&X&X&X&X&X&X= . p.p.p.p.p.p.p.p.p.p.p.p.p.p.p.p.p.p.p.p.p./ . &X&X&X&X&X&X&X&X&X&X&X&X  ",
"  &X&X&X&X&X&X&X&X&X&X&X- O p.p.p.p.p.p.p.p.p.p.p.p.p.p.p.p.p.p.p.p.p./ . &X&X&X&X&X&X&X&X&X&X&X&X  ",
"  &X&X&X&X&X&X&X&X&X&X&X- O p.p.p.p.p.p.p.a.a.a.p.p.p.p.p.p.p.p.a.a.p./ . &X&X&X&X&X&X&X&X&X&X&X&X  ",
"  &X&X&X&X&X&X&X&X&X&X&X- . ,.,.,.,.,.,.,.,.,.,.,.,.,.,.,.,.,.,.,.,.,.W . &X&X&X&X&X&X&X&X&X&X&X&X  ",
"  &X&X&X&X&X&X&X&X&X&X&X- . >.*.:.:.:.:.:.:.:.:.:.:.:.:.:.:.:.:.:.:.:.H . &X&X&X&X&X&X&X&X&X&X&X&X  ",
"  &X&X&X&X&X&Xe.e.e.%.. . . :.>.:.:.:.:.:.:.:.:.:.:.:.:.:.:.:.:.:.:.:.P . . . p.e.e.@X&X&X&X&X&X&X  ",
"  &X&X&X&X&X&X6.5.5.^ L L L -.7.7.7.7.7.-.8.7.7.7.7.8.-.7.7.7.7.7.7.7.@.L L L 5.5.5.OX&X&X&X&X&X&X  ",
"  &X&X&X&X&X&X< . . K e.e.e.e.e.p.p.p.p.p.e.a.a.a.a.a.e.p.p.p.p.e.e.e.a.p.p.p.. . .  X&X&X&X&X&X&X  ",
"  &X&X&X&X&X&X X X8 q q q y 0 0 0 q y 0 0 0 0 y y 0 0 0 0 y q 0 q 0 0 0 y 0 q . ;.|.&X&X&X&X&X&X&X  ",
"  &X&X&X&X&X&X&X&Xw 2 . . . . . . . . . . . . . . . . . . . . . . . . . . . . . >.&X&X&X&X&X&X&X&X  ",
"  &X&X&X&X&X&X&X&X&Xh.r . . R R R ].).).Q././.(.(.(././._./._.(.~ R R d . t 8 &X&X&X&X&X&X&X&X&X&X  ",
"  &X&X&X&X&X&X&X&X&XY.[ # . R ! &.).Q.S.S.S.Q.(.Q.Q.Q.A.S.S.D.(.4.&.R d . } [ &X&X&X&X&X&X&X&X&X&X  ",
"  &X&X&X&X&X&X&X&X&X&X&X= . R y.Q.(.).` ` ` Q.(.(./.Q.( ` ` s.Q.Q./.R d . &X&X&X&X&X&X&X&X&X&X&X&X  ",
"  &X&X&X&X&X&X&X&X&X&X&X= = F.K.Q.Q.(.` ` ` U.Q.Q.Q./.( ` ` s.(.Q.(.F.i.. &X&X&X&X&X&X&X&X&X&X&X&X  ",
"  &X&X&X&X&X&X&X&X&X&X&X= # Q.Q.(.Q._.` ' ' U.Q.Q.Q.Q.) ` ` d.Q.Q.(.Q.f.. &X&X&X&X&X&X&X&X&X&X&X&X  ",
"  &X&X&X&X&X&X&X&X&X&X&X= = Q.(.(.Q.Q./.Q.(.(.Q./.(.Q.(.Q.(.Q.(.Q.(.Q.f.. &X&X&X&X&X&X&X&X&X&X&X&X  ",
"  &X&X&X&X&X&X&X&X&X&X&XX.X.C.J.Q.Q.Q.Q.Q./.Z.C.C.V.C.Q./.Q.Q.(.Q.Q.C.g.X.&X&X&X&X&X&X&X&X&X&X&X&X  ",
"  &X&X&X&X&X&X&X&X&X&X&X&X&X. *.Q.(.(.Q./.Q.4 . . . . ].Q./.Q.Q.(.(.. o.&X&X&X&X&X&X&X&X&X&X&X&X&X  ",
"  &X&X&X&X&X&X&X&X&X&X&X&X&X{.j.h _.(.Q.(.Q.J.J.J.J.H./.(.Q.Q./.F h {.oX&X&X&X&X&X&X&X&X&X&X&X&X&X  ",
"  &X&X&X&X&X&X&X&X&X&X&X&X&X&Xl.. _.(.(.(.Q.(.(.Q.(././././././.e . &X&X&X&X&X&X&X&X&X&X&X&X&X&X&X  ",
"  &X&X&X&X&X&X&X&X&X&X&X&X&X&X&X&X. . . . . . . . . . . . . . . oX&X&X&X&X&X&X&X&X&X&X&X&X&X&X&X&X  ",
"  &X&X&X&X&X&X&X&X&X&X&X&X&X&X XW., , . @ ; S S S S S m m . = , R.E.&X&X&X&X&X&X&X&X&X&X&X&X&X&X&X  ",
"  &X&X&X&X&X&X&X&X&X&X&X&X&X&Xl.. Z Z . < k U.Q.Q.(.Q.n.n.. 6 Z O . &X&X&X&X&X&X&X&X&X&X&X&X&X&X&X  ",
"  &X&X&X&X&X&X&X&X&X&X&X&X&Xz l B = = B u = ] J Q.P.M.y i B p = n n z 1.&X&X&X&X&X&X&X&X&X&X&X&X&X  ",
"  &X&X&X&X&X&X&X&X&X&X&X&X&X. 3 Z . . Z p . k f (.L.n.. . Z p . C Z . o.&X&X&X&X&X&X&X&X&X&X&X&X&X  ",
"  &X&X&X&X&X&X&X&X&X&X&X&X&X. 3 Z . . Z Z Z c.m.k  .n.c Z Z p . B Z . o.&X&X&X&X&X&X&X&X&X&X&X&X&X  ",
"  &X&X&X&X&X&X&X&X&X&X&X&X&X. 3 Z . . Z Z Z c.N.D +.x.v Z Z s . B Z . *.&X&X&X&X&X&X&X&X&X&X&X&X&X  ",
"  &X&X&X&X&X&X&X&X&X&X&X&X&X. 3 Z . . Z Z Z c.n.M.u.k Z Z Z s . C Z + o.&X&X&X&X&X&X&X&X&X&X&X&X&X  ",
"  &X&X&X&X&X&X&X&X&X&X&X&X&X. 3 Z . . Z Z Z b.n.n.n.c.x Z Z s . M Z + o.&X&X&X&X&X&X&X&X&X&X&X&X&X  ",
"  &X&X&X&X&X&X&X&X&X&X&X&X&X. 1 B . . Z Z Z c.M.n.n.n.x Z Z s . N C + o.&X&X&X&X&X&X&X&X&X&X&X&X&X  ",
"  &X&X&X&X&X&X&X&X&X&X&X&X&X. *.(.. . Z Z Z $.#.t.-.#.Z Z Z p . I._.. o.&X&X&X&X&X&X&X&X&X&X&X&X&X  ",
"  &X&X&X&X&X&X&X&X&X&X&X&X&X. | B.. . I I I =.-.r.r.-.P I I N . b.C.. o.&X&X&X&X&X&X&X&X&X&X&X&X&X  ",
"  &X&X&X&X&X&X&X&X&X&X&X&X&X. . . . . 9.9.9.9.9.9.9.9.9.9.9.O.. . . . o.&X&X&X&X&X&X&X&X&X&X&X&X&X  ",
"  &X&X&X&X&X&X&X&X&X&X&X&X&X[.[.[.. . 9.9.9.y 8 e e w 9.9.9.O.. W.[.[. X&X&X&X&X&X&X&X&X&X&X&X&X&X  ",
"  &X&X&X&X&X&X&X&X&X&X&X&X&X&X&X&X. . 9.9.9.: . . . . 9.9.9.O.. oX&X&X&X&X&X&X&X&X&X&X&X&X&X&X&X&X  ",
"  &X&X&X&X&X&X&X&X&X&X&X&X&X&X&X&X. . 9.9.9.: . &Xk.. 9.9.9.O.. oX&X&X&X&X&X&X&X&X&X&X&X&X&X&X&X&X  ",
"  &X&X&X&X&X&X&X&X&X&X&X&X&X&X&X&X. . 9.9.9.: . &Xk.. 9.9.9.O.. oX&X&X&X&X&X&X&X&X&X&X&X&X&X&X&X&X  ",
"  &X&X&X&X&X&X&X&X&X&X&X&X&X&X&X&X. . 9.9.9.: . &Xk.. 9.9.9.O.. oX&X&X&X&X&X&X&X&X&X&X&X&X&X&X&X&X  ",
"  &X&X&X&X&X&X&X&X&X&X&X&X&X&X&X&X. . 3.3.3.- . &Xk.. 3.3.3.Y . oX&X&X&X&X&X&X&X&X&X&X&X&X&X&X&X&X  ",
"  &X&X&X&X&X&X&X&X&X&X&X&X&X&X&X&X. . 2.2.2.- . &Xk.. 2.2.2.Y . oX&X&X&X&X&X&X&X&X&X&X&X&X&X&X&X&X  ",
"  &X&X&X&X&X&X&X&X&X&X&X&X&X&X&X&X. . . . . . . &Xk.. . . . . . oX&X&X&X&X&X&X&X&X&X&X&X&X&X&X&X&X  ",
"  &X&X&X&X&X&X&X&X&X&X&X&X&X&X&X&XJ J J J J J G &XT.J J J J J J +X&X&X&X&X&X&X&X&X&X&X&X&X&X&X&X&X  ",
"  &X&X&X&X&X&X&X&X&X&X&X&X&X&X&X&X&X&X&X&X&X&X&X&X&X&X&X&X&X&X&X&X&X&X&X&X&X&X&X&X&X&X&X&X&X&X&X&X  ",
"  &X&X&X&X&X&X&X&X&X&X&X&X&X&X&X&X&X&X&X&X&X&X&X&X&X&X&X&X&X&X&X&X&X&X&X&X&X&X&X&X&X&X&X&X&X&X&X&X  "
};
