/* XPM */
static char *result[] = {
/* columns rows colors chars-per-pixel */
"50 50 99 2 ",
"   c #040203",
".  c #0B0302",
"X  c #040A02",
"o  c #0B0902",
"O  c #03030B",
"+  c #0A050A",
"@  c #01090C",
"#  c #0C080D",
"$  c #120401",
"%  c #1A0501",
"&  c #150C03",
"*  c #1B0C02",
"=  c #12060A",
"-  c #130A0A",
";  c #1B0D0A",
":  c #0D1101",
">  c #151104",
",  c #1E1203",
"<  c #1D1901",
"1  c #12120A",
"2  c #1E1109",
"3  c #030413",
"4  c #0B0412",
"5  c #01031A",
"6  c #0C0418",
"7  c #120812",
"8  c #190B10",
"9  c #230E02",
"0  c #2A0F03",
"q  c #220E0A",
"w  c #251403",
"e  c #2B1403",
"r  c #241903",
"t  c #2D1A05",
"y  c #25120A",
"u  c #2D160A",
"i  c #22190A",
"p  c #2D190A",
"a  c #331602",
"s  c #331A04",
"d  c #3C1C04",
"f  c #32160A",
"g  c #321A0C",
"h  c #391B08",
"j  c #2D2101",
"k  c #3C2102",
"l  c #3E220B",
"z  c #401B03",
"x  c #412200",
"c  c #4B2605",
"v  c #472903",
"b  c #4B2905",
"n  c #4C2B08",
"m  c #552E02",
"M  c #562E0D",
"N  c #582D0D",
"B  c #55310D",
"V  c #673706",
"C  c #6D3706",
"Z  c #6D3804",
"A  c #673608",
"S  c #6A3709",
"D  c #67380A",
"F  c #683908",
"G  c #713A06",
"H  c #793F08",
"J  c #774604",
"K  c #7A4204",
"L  c #7A430A",
"P  c #774616",
"I  c #883F00",
"U  c #844400",
"Y  c #8E4E03",
"T  c #8E4D0A",
"R  c #9C4601",
"E  c #954D03",
"W  c #9B4D03",
"Q  c #944E0A",
"!  c #9B4C0A",
"~  c #8D5203",
"^  c #8E530A",
"/  c #945103",
"(  c #9B5103",
")  c #995900",
"_  c #94520A",
"`  c #9A530A",
"'  c #9D580F",
"]  c #8E4D16",
"[  c #924C12",
"{  c #9A4C13",
"}  c #8B5614",
"|  c #955111",
" . c #995410",
".. c #A14702",
"X. c #A24B03",
"o. c #A84900",
"O. c #A14C0A",
"+. c #A25105",
"@. c #A35309",
/* pixels */
"C Q W ` R ` ! . E ! R W E Q % | E R E W T V O.` ..! W 0 _ W / R Q / . R ` W W ~ Y x | / W W R c Y O.",
"Z W E E ! _ W   _ R `  ./ R . ! E +.` W R V R X.@.O...< E Q ~ ` ` / O E W W ` / / k { ~ W E ` n E ..",
"e h t t p s s O g g a f p a 4 a t a t t a r t a t t f # a t t a t a + p t f f g f ; a f s j t q a t ",
"R R O.! % W W ( R O.H U ` Q W ` O.o T W [ E O._ $ W W X.E O.Y m W ` W W ` z W ! E E _ O.o ~ W Q Q O.",
"W X.W W 6 X./ { W ! K K W ! W W ! + ( W O.W Q X.O W W Q W E / N Q ( ! / E d ~ ( ! ( ( Q O / E W W ] ",
"e w y t 3 e e i w w y y w a i r y 3 e y t y y e 3 u y w e e e ; r r u w y & w r a u r r + t e t r y ",
"C ` W ` W Q ! . W ! W W E Q $ { R E E W Q V W { R ! ! 0 _ W / W W / . W W W W E ~ x | E R E W c T X.",
"Z E E E W ` W   Q W ` ` / W . ! E +./ W R V W X.+.W W , / E / _ _ (   _ W ! Q / _ k ! / W / ! b E R ",
"q t , * 2 9 w O q q 9 q 2 0 3 9 ; 9 r 2 w * 2 w 2 2 y # w , * * , 0 O ; * q q y y 7 9 2 , < , & r & ",
"R R O.! % W W ` W ! H I Q Q ( ` O.o Y W [ E ! E $ W W ( E O.Q m W ( ( W ` z W E E E / ( . _ W E E O.",
"W X.W ( 6 W / { W ! L K W ! W E ! + / ! X.W T ..O W W Q R E E M ! / ! / E d / ( ! O.( ! O / E W O.[ ",
"& & & 9 3 & & - * & * - & 9 1 & - 3 * % * & - 9 5 % - & & & w o > > ; & * $ & & 9 , > & O * * ; & - ",
"C ` W _ O.` W . W W W W E ` $ { R W E W _ A W Q O.Q R 0 / ` / W W / . R ! ( W / ~ k | ( ` E R b Q X.",
"Z W W E E ` W   / W ! ! E W . W / W / W E V W O.@.W W , ( ! / _ / (   Q ` / ! / ~ l ! / W E ` v / R ",
"- ; o o + $ $ @ + = $ 8 + % 5 & o $ & o % & . % + o o # % o . o o % O + o . = = ; 4 % + o : o = & o ",
"R R O.+.% E ( ` W ! H U E ` ( _ O.+ Y ! [ Y ! E $ W ` W E O.E m W ` ` W +.z W Y E / / W . ~ W / Q ! ",
"W X.W W 4 R E { W W L K W ! W E ! + / E W ! Q ..  E W Q W E / N W / ` E E d ~ ( ! W / `   E E W W ] ",
"    O $ 3 X   @ .   $ O   . @ . O 5 . . .   O . 5 . O   . . $ O X   # . .       $ o   O O .   +     ",
"C ( W _ +.Q R . W E E W E ` .  .R W E W Q V O.Q O.Q W 0 / / _ ( E /   R E ` W / ~ k ` ( ` E R n _ X.",
"Z ` E W ` ` E   _ W ` ! / W . W / W / W W V E W W X.W , ! ( / _ W ( O _ W W ! ( ^ l ! / E / ( v ` R ",
"+ &     O     @ O + . +   . 5 .   O X O $ o   .       O o         . O     O O   + 3 .     X   + o   ",
"R R O.` % / R ' R ! L I E ` / _ W o Y R ] E ! E . W ` W E O.E m E ( ` W ( z W E / ( ~ ( . Y W / Y ! ",
"W R W W 4 W E { W E L J W ! / E W + E E W W Q ..  E W Q W W / N W / W W R d / / ! W / `   E E W W [ ",
"    . o 3     O .   . O   . @   O 5 .   .   O   5 . O       o O X   3           o .     3   . O     ",
"C ` E _ @.E W   W Q Q W E ` . { W ` E R ` A W Q O.Q R w / ` / ` E / . E Q ` W / ~ k ` W ` E R n Q X.",
"Z ` W W ( W R   E W W ! E ( . W E W / W E A E W W W W , W W / ` W (   E W E W E ^ l ! / E / ( v E E ",
"+ &     O     @ O . . +   o 5 .   O   O $ o   . O     @ .         . O     O +   + 3 .     X   O o   ",
"W R ! @.$ ` E ` W W L U E _ ) / W o Y E ] / E E . W ! W E O./ m W / ` X.( z W E _ / ~ (   ~ W _ Q W ",
"R W ( W + R / ! W R L K W ! E E W + E E ( W Q ..  E W Q W E / B W / W ( E d / / W / / ` O / E W W [ ",
"      . 5   O @     + O   . @   O 3 .   . O O   5 . O       . O X   3           $ #     O     .     ",
"G ` W ^ @.E R . ( Q Q W E ` . ` W ` T E _ V ..Q O.E R w ` E _ ) R /   W E ` X./ ~ d ` ( ( Q R n _ o.",
"C ` ` W ( W E   E W ( W E E . W / R / R / V E ` W W W 2 ( ( / _ W W O / ` E E ( } l W / E / ( v Q Y ",
"+ %     O     @ O + . O   . 3 .   O .   o o   . O   . O +       X . @     O .   + 3     O X   O .   ",
"W E ! +.$ E E ` O.R L U E _ ) ~ ( + ~ R ] E E E   W ` E E ..( m E _ ' R ( d ( Y / / ~ (   ~ W / Y ! ",
"W W ` W + W E ! W E L K E ! / Y W O _ E E W Q R   R W W ( / ` B ( / W W W d / / W E ~ ( O / E W W Q ",
"      . 3   O @ .   . O O . @   O 3     . O   O 5   O O     . X     3           $ #     O .   O     ",
"G ` / ^ @.E R   W Q Q X.W `   ` W ( T R  .F X.Q @.Y R w _ / _ ` E /   W Q ` W / ~ d ` X.( T E n _ X.",
"C ! W W ) O.W O E W W W E ( . R / R / W ~ A E E W W E , W ( E / X.W O / ( E W W } l W ) E / ( v ` Y ",
"+ &   . 3     @   O o +   + 3 .   @ X   o .     3   . O o     O   . O     O .   O @     O X   O .   ",
"W R ! @.$ E E ` O.R K K E _ ) ~ W o Y R ] / E E . W ` E E O.` m ( / ` W ( d W Y _ ) ~ (   Y W _ E Q ",
"W W ` X.+ W / W W E P K E ! E Y R O _ E / W E ..  R ( ! ( / ( B ( / W W E d E / W E ~ ( O E W W W W ",
"        @     3     . O   . @   O 3     o O O   3   O O     . @     3           o +     O     +   O ",
"Z ` ` / @.E R   ( E E W / Q   ! ( ( T W ` D X.Q @.T R w / / _ ` E E   W E ` W / ~ k ` ( ` ~ E n / X.",
"S ` ( W ( X.W O W W W W W ` $ W / R / W ~ D E / R W E w W ( E ) X.W   ( ( Q W W } l E ( E / ( v ` Y ",
"+ o     3     @ O . . +     @     @ .   .     . 3   o O .   O O   . O     O O   + O     @ X         ",
"R W O.@.o ( E ` X.W L U E _ ) / ( + Y R ] E Q E   R ` / E W ( m W / ` W ( d ( E / / Y W O ~ W Q Q W ",
"W ( ( X.O W E E W E P H E ! ~ Y W 3 ~ R / E E R   R W R ( / / B ( / W ( W d E / W E ~ )   E W E E ` ",
"        3   . 3     . O O . 3   . 3   O o O     5   O O     o O     3         X $ @     @     +     ",
"G ` / _ @.E W   ( E / W / `   ! W ( Y R _ F X.` @.E E w / E / ` E /   W E ` W / ~ k | ( ` E W b _ X.",
"S ! ( W ( X.W   E R W R E / $ W ( R / W ~ D ~ ~ R W E , ( X.E ` X.X.  ( ( E W W } l E ( E ~ ( v ` Y "
};
